<?xml version="1.0" encoding="UTF-8" standalone="no"?>
<!-- Created with Inkscape (http://www.inkscape.org/) -->
<svg
   xmlns:dc="http://purl.org/dc/elements/1.1/"
   xmlns:cc="http://creativecommons.org/ns#"
   xmlns:rdf="http://www.w3.org/1999/02/22-rdf-syntax-ns#"
   xmlns:svg="http://www.w3.org/2000/svg"
   xmlns="http://www.w3.org/2000/svg"
   xmlns:sodipodi="http://sodipodi.sourceforge.net/DTD/sodipodi-0.dtd"
   xmlns:inkscape="http://www.inkscape.org/namespaces/inkscape"
   width="892.09692"
   height="892.43768"
   id="svg2"
   sodipodi:version="0.32"
   inkscape:version="0.46"
   version="1.0"
   sodipodi:docname="button-red.svg"
   inkscape:output_extension="org.inkscape.output.svg.inkscape">
  <defs
     id="defs4">
    <inkscape:perspective
       sodipodi:type="inkscape:persp3d"
       inkscape:vp_x="0 : 526.18109 : 1"
       inkscape:vp_y="0 : 1000 : 0"
       inkscape:vp_z="744.09448 : 526.18109 : 1"
       inkscape:persp3d-origin="372.04724 : 350.78739 : 1"
       id="perspective10" />
    <inkscape:perspective
       id="perspective2390"
       inkscape:persp3d-origin="372.04724 : 350.78739 : 1"
       inkscape:vp_z="744.09448 : 526.18109 : 1"
       inkscape:vp_y="0 : 1000 : 0"
       inkscape:vp_x="0 : 526.18109 : 1"
       sodipodi:type="inkscape:persp3d" />
  </defs>
  <sodipodi:namedview
     id="base"
     pagecolor="#ffffff"
     bordercolor="#666666"
     borderopacity="1.0"
     gridtolerance="10000"
     guidetolerance="10"
     objecttolerance="10"
     inkscape:pageopacity="0.0"
     inkscape:pageshadow="2"
     inkscape:zoom="0.49674251"
     inkscape:cx="333.42168"
     inkscape:cy="390.97353"
     inkscape:document-units="px"
     inkscape:current-layer="layer1"
     showgrid="false"
     inkscape:window-width="934"
     inkscape:window-height="885"
     inkscape:window-x="252"
     inkscape:window-y="202" />
  <metadata
     id="metadata7">
    <rdf:RDF>
      <cc:Work
         rdf:about="">
        <dc:format>image/svg+xml</dc:format>
        <dc:type
           rdf:resource="http://purl.org/dc/dcmitype/StillImage" />
        <dc:title>Flat Button</dc:title>
        <dc:description>Flat button suitable for added text</dc:description>
        <dc:date>2009-11-19</dc:date>
        <dc:creator>
          <cc:Agent>
            <dc:title>Philip B. Crichton, Sr.</dc:title>
          </cc:Agent>
        </dc:creator>
        <cc:license
           rdf:resource="http://creativecommons.org/licenses/publicdomain/" />
      </cc:Work>
      <cc:License
         rdf:about="http://creativecommons.org/licenses/publicdomain/">
        <cc:permits
           rdf:resource="http://creativecommons.org/ns#Reproduction" />
        <cc:permits
           rdf:resource="http://creativecommons.org/ns#Distribution" />
        <cc:permits
           rdf:resource="http://creativecommons.org/ns#DerivativeWorks" />
      </cc:License>
    </rdf:RDF>
  </metadata>
  <g
     inkscape:label="Layer 1"
     inkscape:groupmode="layer"
     id="layer1"
     transform="translate(69.036071,-54.083862)">
    <g
       id="g2419"
       transform="translate(-28.469752,247.68683)">
      <path
         style="fill:#d7a59c"
         d="M 380.41903,698.32485 C 342.45764,696.08511 301.09951,688.15061 265.30773,676.2409 C 88.965107,617.56289 -32.39848,456.91377 -40.160404,271.89239 C -46.196575,128.00788 15.328136,-6.7799 128.35658,-97.29308 C 141.96853,-108.19353 169.14437,-126.57103 185.21429,-135.74277 C 238.60801,-166.21668 302.11689,-186.15654 364.65167,-192.08066 C 385.84116,-194.088 425.34861,-194.11429 446.30368,-192.13499 C 634.40243,-174.36819 789.72356,-42.39745 837.63158,140.36218 C 848.26511,180.927 852.32866,217.19344 851.40302,263.26984 C 850.63352,301.57424 847.73837,324.19811 839.11469,359.29571 C 826.59746,410.23973 806.58014,455.66593 777.17325,499.86218 C 702.78369,611.66387 582.98641,683.58633 449.21429,696.75828 C 429.38874,698.71042 398.77104,699.40763 380.41903,698.32485 z M 759.73435,23.88635 C 759.03863,23.04805 757.737,22.37219 756.84185,22.38442 C 755.62859,22.40099 755.84687,22.89269 757.69935,24.31602 C 760.48786,26.45855 761.66314,26.2104 759.73435,23.88635 z M 754.71055,16.11218 C 754.70498,14.24913 750.81719,8.62817 737.17971,-9.23387 C 733.86069,-13.58104 730.42903,-18.26282 729.5538,-19.63782 C 728.06961,-21.96949 721.44467,-29.2895 705.71429,-45.97851 C 690.21303,-62.42443 652.37131,-92.67973 631.71429,-105.14316 C 615.41375,-114.9781 601.64019,-121.58946 597.38096,-121.62327 C 595.12221,-121.6412 595.64964,-119.64561 598.27381,-118.24502 C 602.1391,-116.18203 609.35183,-111.12345 615.82488,-105.93575 C 619.4607,-103.02189 622.91096,-100.63782 623.49212,-100.63782 C 624.07329,-100.63782 627.56824,-98.16282 631.25869,-95.13782 C 634.94914,-92.11282 638.50794,-89.63782 639.16713,-89.63782 C 639.82632,-89.63782 641.4566,-88.46828 642.78998,-87.03883 C 644.12335,-85.60939 647.46429,-83.30321 650.21429,-81.91398 C 652.96429,-80.52475 657.27548,-77.53179 659.7947,-75.26296 C 662.31393,-72.99413 666.92643,-69.35143 670.0447,-67.16805 C 673.16298,-64.98468 675.71429,-62.90698 675.71429,-62.55094 C 675.71429,-62.1949 677.40179,-60.77738 679.46429,-59.40089 C 681.52679,-58.02441 688.93855,-51.21461 695.93486,-44.26801 C 702.93118,-37.3214 709.06119,-31.63782 709.55712,-31.63782 C 710.05305,-31.63782 713.58792,-27.88302 717.4124,-23.29382 C 721.23688,-18.70462 727.70687,-11.89492 731.79015,-8.16114 C 735.87343,-4.42736 739.38551,-0.86966 739.59478,-0.25513 C 739.80405,0.35939 740.66895,1.65814 741.51678,2.63098 C 742.36461,3.60382 744.23105,6.74684 745.66442,9.61547 C 748.54663,15.3837 754.72164,19.81843 754.71055,16.11218 z M 591.71429,-123.63782 C 591.71429,-124.18782 590.92679,-124.63093 589.96429,-124.62251 C 588.46874,-124.60942 588.43239,-124.46625 589.71429,-123.63782 C 591.6015,-122.41821 591.71429,-122.41821 591.71429,-123.63782 z"
         id="path2441"
         sodipodi:nodetypes="csssssssssssccssccsssssssssssssssssssssssccssc" />
      <path
         style="fill:#cd8873"
         d="M 375.71429,696.75092 C 203.86099,686.46099 44.631075,567.6406 -12.468883,404.92647 C -75.02084,239.67049 -25.744203,40.557879 106.37959,-76.625195 C 238.9418,-200.37516 449.56186,-228.28992 609.62242,-142.85391 C 777.62572,-58.869532 877.04055,139.3409 844.87719,324.13809 C 818.50201,498.16199 679.15828,647.96235 507.06512,685.79179 C 464.14419,696.69765 419.73936,697.73918 375.71429,696.75092 z M 815.98206,165.64925 C 805.25392,45.21232 720.44345,-58.86084 618.43101,-118.30894 C 555.2613,-149.58879 483.40805,-176.99442 411.9428,-165.19967 C 445.29003,-149.80445 488.89009,-147.27815 524.75471,-132.73769 C 580.06748,-113.83417 629.2388,-78.746917 674.07119,-41.71665 C 737.20414,13.204699 777.83213,89.559037 804.47004,167.67154 C 807.17279,172.28342 821.79794,183.79432 815.98206,165.64925 z"
         id="path2439" />
      <path
         style="fill:#cb7058"
         d="M 376.21429,696.34833 C 205.06227,686.54247 46.396638,568.65478 -11.285323,407.08666 C -72.845197,246.51932 -29.176638,52.685264 95.761378,-65.626185 C 224.08802,-194.30251 434.39454,-228.67459 597.18106,-148.09254 C 762.59541,-71.398125 866.61073,114.68408 847.89983,295.66062 C 833.31638,480.08552 689.90362,644.14413 509.62133,684.74498 C 466.05452,695.80968 420.96708,698.26728 376.21429,696.34833 z M 811.10443,250.11218 C 820.56725,202.86615 825.99192,152.47168 808.10252,106.53496 C 769.02209,-13.767642 671.19866,-114.30297 549.44374,-151.06904 C 479.6844,-176.52972 401.68919,-178.11306 331.21825,-154.97097 C 346.79713,-143.88557 380.75321,-152.20646 403.83987,-148.91224 C 408.59695,-138.03669 444.81295,-149.81566 459.6258,-136.30436 C 490.24975,-131.32171 522.50651,-121.1731 551.61227,-107.63782 C 586.7796,-88.404005 622.35638,-69.646282 652.78168,-43.052163 C 676.49752,-24.993378 694.56104,-1.0780206 715.87811,18.64142 C 727.09668,40.557172 741.41105,59.87308 750.70766,82.36218 C 763.12818,103.6909 770.81327,126.20248 780.58794,149.94027 C 785.50579,170.56787 790.66214,180.87805 794.64662,198.77645 C 792.72035,207.96466 807.1307,233.51079 800.71169,235.63637 C 811.97856,236.52411 801.08842,255.31256 811.10443,250.11218 z M 799.4068,225.00317 C 800.07355,215.19404 808.25247,228.01283 799.4068,225.00317 z M 802.71429,244.36218 C 800.24799,240.7999 801.50493,248.01832 802.71429,244.36218 z"
         id="path2437"
         sodipodi:nodetypes="ccccccccccccccccccccccccc" />
      <path
         style="fill:#ac6254"
         d="M 376.21429,696.34831 C 234.73071,686.02434 109.25496,612.29203 32.479445,494.36218 C -27.668049,401.97354 -51.284294,288.0585 -32.824643,179.36218 C -20.735266,108.17606 7.557403,42.52705 50.878726,-14.85927 C 81.115177,-54.91249 116.53245,-88.32747 158.21429,-116.12668 C 178.86003,-129.89612 192.45865,-137.73197 212.21429,-147.24279 C 305.67501,-192.23692 410.16277,-203.3538 510.61735,-178.9911 C 576.08669,-163.11318 633.08746,-134.48959 688.33727,-89.74703 C 696.56558,-83.08356 718.89846,-61.48865 718.24113,-60.83133 C 717.95283,-60.54302 714.66457,-63.19404 710.93389,-66.72248 C 704.15636,-73.1326 684.37848,-89.85378 680.34767,-92.58154 C 679.17431,-93.37559 676.29972,-95.54491 673.95968,-97.40226 C 671.61965,-99.259616 667.56965,-102.22919 664.95968,-104.00131 C 662.34972,-105.77343 657.20261,-109.3416 653.52166,-111.93058 C 649.84071,-114.51956 646.64057,-116.63782 646.41022,-116.63782 C 646.17987,-116.63782 642.66655,-118.80221 638.60285,-121.44757 C 624.23275,-130.80212 590.58953,-148.34521 581.63094,-151.1553 C 580.30178,-151.57223 576.96429,-152.93639 574.21429,-154.18678 C 567.74081,-157.13019 525.58721,-170.93217 515.21429,-173.50463 C 506.53634,-175.65675 492.46427,-178.80679 483.71429,-180.55593 C 473.86849,-182.52413 458.58756,-183.80923 439.25524,-184.29486 C 421.46635,-184.74172 420.06959,-184.64376 416.62495,-182.70776 C 413.39649,-180.89327 412.80407,-180.82472 411.71298,-182.1394 C 410.81812,-183.21764 409.08904,-183.51882 405.51033,-183.21983 C 401.05345,-182.84747 398.65757,-182.07772 399.79762,-181.38444 C 400.02679,-181.24508 401.69433,-180.09364 403.50326,-178.82569 C 405.33042,-177.54496 407.99718,-176.61346 409.50326,-176.72987 C 414.09181,-177.08454 417.71429,-176.67846 417.71429,-175.80939 C 417.71429,-174.62871 397.08387,-170.63782 390.98046,-170.63782 C 388.16799,-170.63782 383.69504,-170.21468 381.04058,-169.69751 C 378.38612,-169.18034 371.71429,-168.00885 366.21429,-167.0942 C 360.71429,-166.17955 349.20074,-163.67769 340.62863,-161.53451 C 332.05652,-159.39133 324.18152,-157.63505 323.12863,-157.63166 C 322.07574,-157.62827 320.05118,-157.01855 318.62961,-156.27673 C 317.20803,-155.53491 313.38303,-154.1134 310.12961,-153.11782 C 306.87618,-152.12224 302.63929,-150.54129 300.71429,-149.60461 C 298.78929,-148.66792 294.28929,-146.88775 290.71429,-145.64866 C 287.13929,-144.40957 281.51429,-141.93574 278.21429,-140.15125 C 274.91429,-138.36676 271.11396,-136.56302 269.76912,-136.14294 C 268.42428,-135.72286 265.16863,-134.05298 262.53436,-132.43209 C 259.90008,-130.8112 256.21694,-129.06317 254.3496,-128.54757 C 252.48227,-128.03197 249.26353,-126.26635 247.19686,-124.62397 C 245.13019,-122.98159 242.91352,-121.63782 242.27092,-121.63782 C 241.62832,-121.63782 237.64071,-119.38782 233.40957,-116.63782 C 229.17842,-113.88782 225.32116,-111.63782 224.83788,-111.63782 C 224.35459,-111.63782 223.39898,-110.96282 222.71429,-110.13782 C 220.76483,-107.78887 222.99637,-108.19339 235.76359,-112.50333 C 267.32481,-123.15773 286.71148,-128.49413 303.71429,-131.20753 C 309.48929,-132.12914 316.46429,-133.25879 319.21429,-133.71787 C 355.12713,-139.7131 425.04738,-139.3354 452.60994,-132.99728 C 456.12755,-132.1884 462.20255,-130.91536 466.10994,-130.16831 C 481.95949,-127.13805 492.4507,-124.73619 496.71429,-123.16172 C 499.18929,-122.24774 504.13929,-120.66202 507.71429,-119.63788 C 515.29596,-117.46595 532.80865,-110.76121 540.71429,-107.00381 C 565.72154,-95.11835 581.57879,-86.91725 589.21429,-81.92045 C 594.16429,-78.68108 600.91429,-74.50254 604.21429,-72.6348 C 612.36987,-68.01888 624.05133,-60.14156 625.71695,-58.13461 C 626.4669,-57.23098 628.6856,-55.64854 630.64739,-54.61807 C 632.60919,-53.58761 639.78981,-47.7705 646.60434,-41.69116 C 653.41886,-35.61182 659.26886,-30.6302 659.60434,-30.62088 C 660.45356,-30.59729 666.8384,-24.32013 683.71429,-6.91752 C 701.34149,11.25984 704.32836,14.82452 713.69437,28.86218 C 717.73096,34.91218 722.25573,41.66218 723.74941,43.86218 C 728.08422,50.2468 743.49711,78.19017 749.67349,90.86218 C 756.55875,104.98858 765.71429,128.38399 765.71429,131.85166 C 765.71429,132.75891 766.9963,136.73243 768.5632,140.6817 C 770.1301,144.63096 772.17179,150.78718 773.1003,154.36218 C 776.31129,166.7253 778.50668,175.88646 779.69042,181.86218 C 780.34413,185.16218 781.33451,189.88718 781.89128,192.36218 C 782.44805,194.83718 783.29701,201.13718 783.77786,206.36218 C 784.25872,211.58718 785.11112,220.58718 785.67208,226.36218 C 787.35902,243.72865 787.77682,254.77032 787.6208,277.86218 C 787.53904,289.96218 787.53514,301.91712 787.61212,304.42872 C 787.6891,306.94032 786.78759,315.26532 785.60877,322.92872 C 784.42994,330.59212 783.26439,339.78718 783.01867,343.36218 L 782.5719,349.86218 L 784.49481,347.06381 C 786.82597,343.67134 789.8256,337.07516 792.99943,328.36218 C 794.30167,324.78718 795.95562,320.28718 796.67486,318.36218 C 800.21687,308.88228 802.99279,300.03127 806.18709,288.03246 C 808.11548,280.78881 810.55579,271.71218 811.60999,267.86218 C 813.698,260.23667 817.03037,236.85197 818.7351,217.86218 C 819.32758,211.26218 820.21808,201.304 820.71397,195.7329 C 822.04298,180.8021 822.87307,178.43872 825.62401,181.7534 C 826.25905,182.51857 828.06084,183.33281 829.628,183.56282 C 832.34488,183.96158 832.43305,183.85385 831.52403,181.24624 C 830.5047,178.32218 830.899,173.82701 832.44474,170.75004 C 832.96635,169.71172 833.31171,163.57468 833.21221,157.11218 C 833.11271,150.64968 833.38698,145.36218 833.8217,145.36218 C 835.37765,145.36218 840.51909,166.1491 843.71529,185.36218 C 854.30811,249.03789 850.6459,314.62136 833.11799,375.14037 C 782.41802,550.19337 633.02711,675.27343 451.21429,694.89567 C 434.1476,696.7376 392.58216,697.54266 376.21429,696.34831 z M 107.11098,295.34687 C 113.17563,295.31694 113.16784,295.34337 113.71429,272.94827 C 114.07836,258.02766 114.56763,252.10419 115.51402,251.15953 C 116.43252,250.24271 122.15214,249.67769 135.01402,249.2332 C 155.12778,248.53808 160.10929,247.34532 169.4535,240.9871 C 174.6724,237.43593 181.99003,227.49191 183.73654,221.57771 C 185.53201,215.49769 186.06749,202.36739 184.77383,196.1427 C 181.91827,182.40265 172.88591,171.37996 161.08314,167.23162 C 153.54205,164.58114 140.55692,163.37366 123.71429,163.75671 C 116.28929,163.92557 104.92679,164.13089 98.464287,164.21296 C 87.943967,164.34656 86.492767,164.5837 84.597547,166.47892 L 82.480807,168.59566 L 83.211137,230.22892 C 83.612817,264.12721 84.340947,292.62121 84.829207,293.54892 C 85.898507,295.58063 90.180907,296.29331 98.110977,295.75928 C 101.35416,295.54087 105.40416,295.35529 107.11098,295.34687 z M 115.46429,223.33434 C 113.92448,222.3915 113.71429,220.48184 113.71429,207.43493 C 113.71429,194.85588 113.96533,192.39892 115.36955,191.23462 C 116.58662,190.22551 120.4914,189.86218 130.11955,189.86218 C 144.39977,189.86218 147.78507,190.88327 151.92614,196.43957 C 155.9935,201.89697 156.01642,211.79698 151.97425,217.22034 C 147.8708,222.72594 144.37072,223.838 130.21429,224.13403 C 122.23586,224.30086 116.53831,223.99196 115.46429,223.33434 z M 238.06521,293.11218 C 239.6249,291.68706 241.67436,287.34048 243.65549,281.25611 C 248.37856,266.75079 246.16554,267.91692 269.69201,267.5364 C 286.11881,267.27071 290.24713,267.48129 292.07365,268.67807 C 293.56997,269.6585 295.41385,273.33843 297.62942,279.76601 C 299.4533,285.05727 301.82619,290.50602 302.90251,291.87433 C 304.79981,294.28636 305.23821,294.36218 317.28687,294.36218 C 328.26546,294.36218 329.94113,294.13534 331.66004,292.41643 C 333.82289,290.25358 333.64306,289.05115 329.70768,279.36218 C 328.47902,276.33718 324.63968,265.98718 321.17582,256.36218 C 317.71197,246.73718 312.09987,231.43718 308.70449,222.36218 C 305.30911,213.28718 301.47449,202.93718 300.18312,199.36218 C 292.25716,177.42016 287.68051,165.98234 286.15009,164.29124 C 284.59356,162.57129 282.98479,162.36378 271.3093,162.37692 C 262.89794,162.38639 257.36137,162.83347 255.82961,163.62692 C 254.15528,164.49423 252.56034,167.24519 250.47528,172.86218 C 245.20795,187.05191 238.72761,205.30926 230.24347,229.86218 C 225.68228,243.06218 219.19727,261.77372 215.83234,271.44337 C 209.64833,289.2141 208.69197,293.783 210.96429,294.6999 C 211.65179,294.97731 217.4767,295.23981 223.90853,295.28323 C 234.69847,295.35608 235.79318,295.18819 238.06521,293.11218 z M 258.35589,241.86092 C 256.6498,240.15484 256.3882,241.34351 263.08742,220.36218 C 265.6338,212.38718 268.15027,205.18718 268.67958,204.36218 C 270.4409,201.61694 272.26552,205.18792 278.13231,222.86218 L 283.77528,239.86218 L 281.634,241.61218 C 278.72851,243.98675 260.67463,244.17966 258.35589,241.86092 z M 400.06612,292.16717 C 401.83906,291.22475 401.88166,289.72757 401.06612,257.0225 C 400.03738,215.76787 400.03178,213.71136 400.94556,212.79758 C 402.43485,211.30828 405.26734,215.45112 422.46703,244.27523 C 444.32617,280.90789 449.97783,289.73293 452.88081,291.76627 C 454.64971,293.00525 457.75871,293.36218 466.78181,293.36218 C 476.89185,293.36218 478.62598,293.11725 480.10768,291.47998 C 481.69006,289.73147 481.76065,285.17408 481.10142,227.31873 C 480.43383,168.72945 480.28285,164.93074 478.55304,163.20093 C 477.00659,161.65448 475.08052,161.36218 466.4368,161.36218 C 451.18404,161.36218 451.69747,160.68558 451.78615,180.66888 C 451.82567,189.5752 452.20341,206.53718 452.62556,218.36218 C 453.04772,230.18718 453.19224,240.42468 452.94671,241.11218 C 451.88352,244.08931 449.62219,241.3279 439.82262,225.08573 C 402.44633,163.13687 402.61207,163.39513 399.71429,162.58541 C 395.45311,161.3947 375.8074,162.04002 374.13796,163.42553 C 372.81817,164.52085 372.6668,172.48322 372.92237,227.36654 C 373.23722,294.97963 373.04956,292.7627 378.53747,293.70125 C 382.55788,294.38882 397.94996,293.29202 400.06612,292.16717 z M 676.25419,292.81505 C 689.50153,289.37629 699.47832,283.10552 707.06431,273.44977 C 713.40079,265.38445 716.93527,257.26783 717.09075,250.42499 C 717.20414,245.43457 717.00887,244.92921 714.71429,244.27467 C 711.44272,243.34145 699.28864,243.28682 694.23969,244.18264 C 690.54367,244.83842 689.97817,245.41261 686.17127,252.37501 C 679.23458,265.06145 668.41286,270.19392 655.54903,266.89835 C 645.75311,264.38876 640.19801,259.19498 635.13358,247.81081 C 632.87508,242.73402 632.41184,240.03016 631.97287,229.36218 C 631.41856,215.8914 632.68083,208.23261 636.89393,199.50388 C 642.94195,186.97357 657.21026,180.74036 670.78339,184.69904 C 677.6936,186.71445 682.02314,190.42403 685.56282,197.36218 C 687.1061,200.38718 689.45902,203.41805 690.79154,204.09744 C 693.7714,205.61674 713.03938,205.79375 715.78003,204.327 C 720.3625,201.87453 716.32805,187.93419 707.73968,176.54495 C 704.43524,172.16284 695.77304,165.72027 689.39192,162.89867 C 670.86429,154.70612 645.08454,156.00074 628.60205,165.95144 C 609.07892,177.7378 597.7771,205.4221 600.67104,234.36962 C 602.46198,252.28406 606.66459,263.39214 615.80826,274.37937 C 623.4794,283.59718 635.9103,290.87051 648.21429,293.34017 C 655.1366,294.72962 669.9471,294.45225 676.25419,292.81505 z M 556.6653,290.9212 C 557.57279,289.82775 557.7832,274.40132 557.53775,226.95627 C 557.25524,172.34815 557.01981,164.23792 555.67817,162.89684 C 554.48842,161.70759 551.46239,161.32785 542.25807,161.21273 C 530.93421,161.0711 530.28524,161.17381 528.48905,163.39202 C 526.67223,165.63569 526.62695,167.94816 527.23784,227.29106 C 527.79435,281.35013 528.064,289.07569 529.44797,290.61218 C 530.78578,292.09742 532.87345,292.36218 543.24683,292.36218 C 552.66888,292.36218 555.74341,292.03201 556.6653,290.9212 z M 829.69608,137.84024 C 829.00138,137.00317 828.29954,133.29067 828.13644,129.59024 L 827.83989,122.86218 L 829.73652,126.93237 C 833.42165,134.84071 833.39401,142.29598 829.69608,137.84024 z"
         id="path2435" />
      <path
         style="fill:#ac4933"
         d="M 381.21429,695.75183 C 209.20291,687.52124 48.461699,570.28414 -10.008953,408.04258 C -72.302134,246.07588 -27.36228,50.266485 99.765617,-67.967865 C 198.60865,-163.09324 345.00792,-209.00671 479.71429,-182.41419 C 458.9022,-183.07176 399.80998,-188.43541 404.59485,-176.20895 C 453.13798,-175.67153 342.13421,-170.86223 309.31751,-153.55225 C 279.67027,-141.6512 239.07176,-126.15808 220.04993,-106.63782 C 328.80548,-147.33761 456.09738,-151.20101 560.89241,-96.526913 C 667.52986,-46.153195 750.11786,52.832352 775.80382,168.51995 C 790.47188,229.51003 789.58244,293.3174 781.13222,355.11345 C 810.7721,302.83102 818.32245,241.57676 823.18732,182.55582 C 842.42499,198.60892 827.99843,122.43058 840.11996,172.43719 C 876.31839,343.2312 796.00133,529.20625 649.60572,623.26356 C 570.90659,675.78368 475.41496,700.03262 381.21429,695.75183 z M 832.72961,147.11218 C 833.48649,140.69427 835.56846,156.22593 832.72961,147.11218 z M 829.78644,137.94908 C 819.84834,107.04996 836.50329,139.84739 829.78644,137.94908 z M 574.21429,-154.63782 C 578.38159,-159.61884 579.52848,-148.88254 574.21429,-154.63782 z M 562.21429,-159.63782 C 557.21556,-162.9171 571.78921,-156.47188 562.21429,-159.63782 z M 549.27191,-164.54456 C 552.86965,-166.19304 553.14812,-161.69955 549.27191,-164.54456 z M 541.21429,-166.6438 C 493.84175,-179.91769 545.18626,-170.33286 541.21429,-166.6438 z M 513.71429,-174.63782 C 497.51025,-179.10813 526.59523,-173.12479 513.71429,-174.63782 z M 410.83929,-175.51282 C 413.11438,-179.20515 413.18551,-172.61571 410.83929,-175.51282 z M 497.21429,-177.65903 C 460.29594,-186.54414 516.74923,-177.80465 497.21429,-177.65903 z"
         id="path2433"
         sodipodi:nodetypes="cccccccccccccccccccccccccccccccc" />
      <path
         style="fill:#953423"
         d="M 381.21429,695.75183 C 208.3859,687.4934 46.934449,569.14811 -10.832408,405.74586 C -67.719073,254.49784 -32.837411,73.798844 77.595841,-44.465668 C 110.49365,-80.494951 149.54657,-111.3795 193.12268,-133.3006 C 221.67622,-126.24156 246.13016,-148.5657 276.72418,-153.43402 C 318.92951,-158.69436 232.89298,-127.70006 221.71429,-115.58675 C 206.24287,-106.47273 178.66155,-83.960957 215.51806,-99.841594 C 312.73582,-140.34571 426.35723,-146.31923 525.18789,-108.04563 C 572.372,-88.26206 617.02654,-61.484207 654.70626,-27.14453 C 688.59547,2.3414008 720.21977,39.663433 739.22546,82.361321 C 756.58941,114.34296 760.68914,141.34861 771.99414,173.42155 C 786.81532,234.3428 784.88791,298.8603 775.12931,360.51021 C 800.87114,361.19339 803.84796,287.17773 821.78693,268.07655 C 826.37827,300.14167 816.61176,335.50383 809.73455,366.26178 C 811.37294,368.74178 829.20716,341.56809 825.72785,362.36218 C 839.37256,348.77391 840.20625,303.48768 846.19883,296.84723 C 832.14993,480.10858 689.19403,642.94628 510.41776,683.58504 C 468.22729,694.42579 424.60338,696.83696 381.21429,695.75183 z M 187.71429,-125.63782 C 185.24799,-129.2001 186.50493,-121.98168 187.71429,-125.63782 z M 820.52069,262.61218 C 818.75231,237.62079 829.90233,271.01044 820.52069,262.61218 z"
         id="path2431"
         sodipodi:nodetypes="cccccccccccccccccccccc" />
      <path
         style="fill:#8c3223"
         d="M 381.21429,695.75183 C 138.48298,690.23407 -68.275638,448.40522 -36.234638,207.76924 C -24.280658,107.46315 19.907208,9.5824784 93.89947,-60.163306 C 84.282004,55.820626 43.737476,174.47551 79.344179,289.85893 C 110.54121,370.92833 210.59084,399.70072 289.46047,381.97869 C 358.71233,372.49818 423.66362,406.11908 478.06564,445.39008 C 534.13025,483.69686 606.73318,503.38436 672.38375,478.23458 C 716.64246,468.03673 763.27598,463.16362 798.88043,431.39008 C 819.00532,429.98218 785.53634,489.64073 770.35199,506.10159 C 728.96246,553.52725 687.51509,602.70427 631.66896,633.75757 C 557.01244,678.87855 468.60312,703.1575 381.21429,695.75183 z M 703.67419,470.57266 L 703.67029,470.57489 L 703.67419,470.57266 z M 722.82678,467.07468 C 735.1105,469.33944 714.47055,459.28632 722.82678,467.07468 z M 88.714287,-34.602638 C 111.97968,-20.960383 80.996731,-53.59393 88.714287,-34.602638 z M 590.34924,492.0845 C 562.88535,499.32862 599.26831,470.69663 590.34924,492.0845 z M 764.71429,454.36218 C 766.40295,442.70693 766.61587,465.83729 764.71429,454.36218 z M 111.71429,335.01718 C 130.38921,354.9441 92.141003,332.94239 111.71429,335.01718 z M 845.79321,293.9455 C 846.42989,260.67623 840.35571,308.48966 845.79321,293.9455 z M 62.259296,200.11218 C 61.283004,213.45118 54.350054,193.64433 62.259296,200.11218 z M 63.888596,164.04773 C 71.142833,191.11196 49.512502,161.73442 63.888596,164.04773 z M 106.88248,-68.272652 C 103.07226,-50.087748 94.459611,-78.147588 106.88248,-68.272652 z"
         id="path2429"
         sodipodi:nodetypes="cccccccccccccccccccccccccccccccc" />
      <path
         style="fill:#6d2b21"
         d="M 381.21429,695.75183 C 214.5356,687.6037 58.030613,577.58157 -4.3021075,422.54269 C -59.102055,290.68229 -47.159734,129.59017 36.15239,12.46695 C 26.748884,37.820947 18.534198,68.566636 19.027321,92.47944 C 21.249894,114.79817 9.4520816,146.59385 15.156845,159.04549 C 13.128504,177.72219 13.295928,203.00618 12.117647,218.95882 C 19.504172,235.8102 12.666352,259.02309 22.868854,273.84095 C 25.319587,295.82552 30.955371,316.87296 39.386702,338.2501 C 52.210021,364.5795 63.161465,395.20817 82.714287,417.96691 C 98.377326,439.24059 114.17067,463.572 135.75854,483.11218 C 156.10109,495.73917 166.33818,516.48777 189.6165,523.27067 C 210.17158,537.13409 231.07392,556.82315 255.87485,564.07587 C 280.25984,575.82467 306.03474,584.86686 333.71429,585.94971 C 358.42988,592.66926 390.64233,597.27893 413.67352,596.55042 C 431.89839,604.76857 429.5623,589.90321 449.00387,597.93568 C 460.19162,588.49787 478.03548,590.06808 497.40718,593.5602 C 508.21724,575.64637 541.75034,598.13489 557.27837,577.57416 C 569.93133,581.90808 578.87785,566.94351 585.32224,576.61218 C 586.95406,553.67226 617.96424,573.4392 628.51249,558.94698 C 652.38605,561.87799 664.50237,541.11321 687.7296,539.41138 C 701.66396,525.83448 724.27201,530.78079 735.71429,513.71499 C 763.70195,503.32697 779.61982,471.01571 796.66743,446.448 C 817.08327,412.57991 829.22741,374.68399 840.2341,337.01048 C 810.53316,511.46637 663.31296,657.23132 489.40488,688.22973 C 453.83395,695.48201 417.39038,696.40144 381.21429,695.75183 z M 714.72345,531.87317 C 708.59459,527.79383 716.44033,537.40283 714.72345,531.87317 z M 841.79321,326.9455 C 842.8076,322.394 842.43656,330.79949 841.79321,326.9455 z"
         id="path2427"
         sodipodi:nodetypes="ccccccccccccccccccccccccccccc" />
      <path
         style="fill:#6b281d"
         d="M 375.71429,694.70972 C 142.80235,686.06845 -56.445793,460.18712 -35.849014,228.00679 C 171.17614,548.36651 268.41637,692.92152 737.20855,522.14028 C 745.01542,568.3862 692.55514,585.78913 664.26207,610.05458 C 583.00869,672.82233 477.79075,702.31829 375.71429,694.70972 z M -3.535713,95.612923 C -19.435045,83.619856 7.8410645,87.828866 -3.535713,95.612923 z"
         id="path2425"
         sodipodi:nodetypes="ccccccc" />
      <path
         style="fill:#57231b"
         d="M 375.71429,694.70972 C 144.86355,686.25025 -53.552304,464.39567 -36.082692,234.01122 C -23.123324,162.35117 -14.263701,202.87785 -17.021699,273.78467 C 18.922213,545.34155 263.44243,710.82927 521.22668,624.56936 C 603.26779,609.18898 692.03573,586.69291 748.37615,520.31924 C 770.97154,506.79032 772.82125,475.41586 795.28282,461.74838 C 717.76631,612.95721 544.86926,708.26939 375.71429,694.70972 z"
         id="path2423"
         sodipodi:nodetypes="ccccccc" />
      <path
         style="fill:#351b17"
         d="M 386.21429,694.19318 C 236.0802,688.55252 92.230446,600.65734 19.572672,468.95553 C -2.9057378,428.91854 -19.864631,385.21332 -27.034134,339.77727 C -5.5017203,420.51997 33.288635,498.45579 95.011507,556.0336 C 139.65352,600.38034 195.60651,632.7506 254.52545,654.47825 C 281.63708,664.77706 309.70066,669.3708 337.99982,674.12456 C 383.59223,679.72223 430.67227,680.41041 475.12741,668.77539 C 504.79104,668.8566 530.79638,654.44098 558.68823,647.6595 C 584.78404,635.68181 612.78537,627.63682 637.36982,611.59715 C 687.84045,584.64606 730.61704,545.11776 768.31681,502.6389 C 692.42598,620.20049 554.29541,693.10596 414.79743,694.5762 C 405.26829,694.69455 395.73757,694.52816 386.21429,694.19318 z"
         id="path2421" />
    </g>
  </g>
</svg>
